# xmcd CD database file
#
# Track frame offsets:
#	150
#	15688
#	29678
#	43607
#	53971
#	67066
#	81033
#	90578
#	105444
#	115695
#
# Disc length: 1751 seconds
#
# Revision: 0
# Processed by: cddbd v1.5.2PL0 Copyright (c) Steve Scherf et al.
# Submitted via: CDex 1.51
#
DISCID=7b06d50a
DTITLE=Marshall Chapman - Me, I'm Feelin' Free
DYEAR=1977
DGENRE=Country
TTITLE0=Somewhere South of Macon
TTITLE1=Know My Needs
TTITLE2=Five O'Clock in the Morning
TTITLE3=Between Carolina and Texas
TTITLE4=What I'd Give
TTITLE5=Ready for the Times To Get Better
TTITLE6=Crystal Clear
TTITLE7=A Woman's Heart (Is a Handy Place To Be)
TTITLE8=Next time
TTITLE9=Rode Hard and Put Up Wet
EXTD=YEAR: 1977
EXTT0=
EXTT1=
EXTT2=
EXTT3=
EXTT4=
EXTT5=
EXTT6=
EXTT7=
EXTT8=
EXTT9=
PLAYORDER=
